<svg width="48" height="48" viewBox="0 0 48 48" fill="none" xmlns="http://www.w3.org/2000/svg">
<path d="M36.7887 24.0002V32.5264C36.7887 32.724 36.7498 32.9197 36.6742 33.1022C36.5986 33.2848 36.4877 33.4507 36.348 33.5904C36.2083 33.7301 36.0424 33.8409 35.8599 33.9165C35.6773 33.9921 35.4817 34.0311 35.2841 34.0311H31.7733C30.4431 34.0311 29.1674 33.5027 28.2268 32.5621C27.2863 31.6215 26.7578 30.3458 26.7578 29.0156C26.7578 27.6855 27.2863 26.4098 28.2268 25.4692C29.1674 24.5286 30.4431 24.0002 31.7733 24.0002H36.7887ZM36.7887 24.0002V16.4771" stroke="#959595" stroke-width="4" stroke-linecap="round" stroke-linejoin="round"/>
<path d="M9 42L6 4.5H42L39 42L24 46.5L9 42Z" fill="#1172B8"/>
<path d="M39 7.5H24V44.25L36 40.5L39 7.5Z" fill="#33AADD"/>
<path d="M29.25 26.25H14.25L13.5 21L25.5 17.25H13.5L12.75 12.75H36L35.25 18L25.5 21.75H34.5L33 36L24 39L15 36L14.25 28.5H18.75L19.5 32.25L24 33.75L28.5 32.25L29.25 26.25Z" fill="white"/>
</svg>
